:version 1.10
:name ASF
:units
  mass 1
  length 1
  angle deg
:documentation
  ASF file generated by Kaydara
:root
  axis xyz
  order  tx ty tz rx ry rz
  position 0 0 0
  orientation 0 0 0
:bonedata
  begin
    id 1
    name lowerbackDummy
    direction 0 0 0
    length 0
    axis 0 -0 0 xyz
  end
  begin
    id 2
    name lowerback
    direction 0.0149039 0.998517 -0.0523597
    length 4.68464
    axis 0 -0 0 xyz
    dof rx ry rz
    limits( -inf , inf )
( -inf , inf )
( -inf , inf )

  end
  begin
    id 3
    name upperback
    direction -0.00882659 0.999418 -0.0329624
    length 4.68933
    axis 0 -0 0 xyz
    dof rx ry rz
    limits( -inf , inf )
( -inf , inf )
( -inf , inf )

  end
  begin
    id 4
    name thorax
    direction -0.0165585 0.999826 -0.0085833
    length 4.68976
    axis 0 -0 0 xyz
    dof rx ry rz
    limits( -inf , inf )
( -inf , inf )
( -inf , inf )

  end
  begin
    id 5
    name lowerneck
    direction -0.0130877 0.999911 0.00260353
    length 3.85007
    axis 0 -0 0 xyz
    dof rx ry rz
    limits( -inf , inf )
( -inf , inf )
( -inf , inf )

  end
  begin
    id 6
    name upperneck
    direction -0.0348454 0.928205 -0.370435
    length 3.70427
    axis 0 -0 0 xyz
    dof rx ry rz
    limits( -inf , inf )
( -inf , inf )
( -inf , inf )

  end
  begin
    id 7
    name head
    direction 0 0 0
    length 0
    axis 0 0 0 xyz
    dof rx ry rz
    limits( -inf , inf )
( -inf , inf )
( -inf , inf )

  end
  begin
    id 8
    name lclavicle
    direction 0.987582 0.144023 0.0627671
    length 7.76078
    axis 0 -0 0 xyz
    dof rx ry rz
    limits( -inf , inf )
( -inf , inf )
( -inf , inf )

  end
  begin
    id 9
    name lhumerus
    direction 1 -4.48958e-011 -1.45183e-018
    length 12.0426
    axis 180 -30 -90 xyz
    dof rx ry rz
    limits( -inf , inf )
( -inf , inf )
( -inf , inf )

  end
  begin
    id 10
    name lradius
    direction 1 -4.48999e-011 3.74805e-027
    length 5.43051
    axis 180 -30 -90 xyz
    dof rz ry rx
    limits( -inf , inf )
( -inf , inf )
( -inf , inf )

  end
  begin
    id 11
    name lwrist
    direction 1 -4.48988e-011 -4.48237e-017
    length 2.71524
    axis -90 90 0 xyz
    dof rz rx ry
    limits( -inf , inf )
( -inf , inf )
( -inf , inf )

  end
  begin
    id 12
    name lhand
    direction 1 -4.48882e-011 -4.48237e-017
    length 1.61667
    axis -90 90 0 xyz
    dof ry rx rz
    limits( -inf , inf )
( -inf , inf )
( -inf , inf )

  end
  begin
    id 13
    name lfingers
    direction 0 0 0
    length 0
    axis 0 0 0 xyz
    dof rz ry rx
    limits( -inf , inf )
( -inf , inf )
( -inf , inf )

  end
  begin
    id 14
    name lthumb
    direction 0 0 0
    length 0
    axis 0 0 0 xyz
    dof ry rx rz
    limits( -inf , inf )
( -inf , inf )
( -inf , inf )

  end
  begin
    id 15
    name rclavicle
    direction -0.980998 0.169556 0.0943023
    length 7.31716
    axis 0 -0 0 xyz
    dof rx ry rz
    limits( -inf , inf )
( -inf , inf )
( -inf , inf )

  end
  begin
    id 16
    name rhumerus
    direction -1 -1.83355e-005 2.45537e-005
    length 12.4217
    axis 180 30 90 xyz
    dof rx ry rz
    limits( -inf , inf )
( -inf , inf )
( -inf , inf )

  end
  begin
    id 17
    name rradius
    direction -1 -4.48967e-011 0
    length 5.51244
    axis 180 30 90 xyz
    dof rz ry rx
    limits( -inf , inf )
( -inf , inf )
( -inf , inf )

  end
  begin
    id 18
    name rwrist
    direction -1 -4.48964e-011 -4.48237e-017
    length 2.75622
    axis -90 -90 0 xyz
    dof rz rx ry
    limits( -inf , inf )
( -inf , inf )
( -inf , inf )

  end
  begin
    id 19
    name rhand
    direction -1 -4.48882e-011 -4.48237e-017
    length 1.81335
    axis -90 -90 0 xyz
    dof ry rx rz
    limits( -inf , inf )
( -inf , inf )
( -inf , inf )

  end
  begin
    id 20
    name rfingers
    direction 0 0 0
    length 0
    axis 0 0 0 xyz
    dof rz ry rx
    limits( -inf , inf )
( -inf , inf )
( -inf , inf )

  end
  begin
    id 21
    name rthumb
    direction 0 0 0
    length 0
    axis 0 0 0 xyz
    dof ry rx rz
    limits( -inf , inf )
( -inf , inf )
( -inf , inf )

  end
  begin
    id 22
    name rfemurDummy
    direction -0.640058 -0.688614 0.340788
    length 5.51442
    axis 0 -0 0 xyz
  end
  begin
    id 23
    name rfemur
    direction -0.34202 -0.939693 0
    length 14.6194
    axis 0 -0 -20 xyz
    dof rx ry rz
    limits( -inf , inf )
( -inf , inf )
( -inf , inf )

  end
  begin
    id 24
    name rtibia
    direction -0.34202 -0.939693 0
    length 17.7267
    axis 0 -0 -20 xyz
    dof rz ry rx
    limits( -inf , inf )
( -inf , inf )
( -inf , inf )

  end
  begin
    id 25
    name rfoot
    direction -0.0979793 -0.269196 0.958089
    length 4.88571
    axis -90 -7.62852e-016 -20 xyz
    dof ry rx rz
    limits( -inf , inf )
( -inf , inf )
( -inf , inf )

  end
  begin
    id 26
    name rtoes
    direction 0 0 0
    length 0
    axis 0 0 0 xyz
    dof rz ry rx
    limits( -inf , inf )
( -inf , inf )
( -inf , inf )

  end
  begin
    id 27
    name lfemurDummy
    direction 0.653368 -0.678499 0.335782
    length 5.59662
    axis 0 -0 0 xyz
  end
  begin
    id 28
    name lfemur
    direction 0.34202 -0.939693 0
    length 14.6166
    axis 0 -0 20 xyz
    dof rx ry rz
    limits( -inf , inf )
( -inf , inf )
( -inf , inf )

  end
  begin
    id 29
    name ltibia
    direction 0.34202 -0.939693 0
    length 17.6582
    axis 0 -0 20 xyz
    dof rz ry rx
    limits( -inf , inf )
( -inf , inf )
( -inf , inf )

  end
  begin
    id 30
    name lfoot
    direction 0.0811271 -0.222895 0.971461
    length 5.14087
    axis -90 7.62852e-016 20 xyz
    dof ry rx rz
    limits( -inf , inf )
( -inf , inf )
( -inf , inf )

  end
  begin
    id 31
    name ltoes
    direction 0 0 0
    length 0
    axis 0 0 0 xyz
    dof rz ry rx
    limits( -inf , inf )
( -inf , inf )
( -inf , inf )

  end
:hierarchy
  begin
    root lowerbackDummy rfemurDummy lfemurDummy
    lowerbackDummy lowerback
    lowerback upperback
    upperback thorax
    thorax lowerneck lclavicle rclavicle
    lowerneck upperneck
    upperneck head
    lclavicle lhumerus
    lhumerus lradius
    lradius lwrist
    lwrist lhand lthumb
    lhand lfingers
    rclavicle rhumerus
    rhumerus rradius
    rradius rwrist
    rwrist rhand rthumb
    rhand rfingers
    rfemurDummy rfemur
    rfemur rtibia
    rtibia rfoot
    rfoot rtoes
    lfemurDummy lfemur
    lfemur ltibia
    ltibia lfoot
    lfoot ltoes
  end

:SAMPLES-PER-SECOND 30
:FULLY-SPECIFIED
:DEGREES
68
root  2.035197686 37.21800076 -33.35155577 11.88189983 -0.1599909961 0.7656599879
lowerback  -4.893650055 1.652570009 -3.353810072
upperback  -3.749010086 2.318059921 -1.135319948
thorax  -1.202479959 1.214669943 0.7960990071
lowerneck  -16.96800041 -1.576969981 -2.120850086
upperneck  38.0304985 -1.295750022 -0.6536419988
head  16.56040001 -0.9222199917 -0.1495469958
lclavicle  0 5.864150125e-015 -2.067359921e-014
lhumerus  -36.50640106 25.2371006 68.1312027
lradius  -2.699524005e-031 -2.276271993e-031 40.13800049
lwrist  -7.062250077e-031 -0 -2.321219921
lhand  -3.536399127e-031 3.129570007 20.47649956
lfingers  90 7.125020027 -90
lthumb  91.58551851 2.907062978 61.37536575
rclavicle  0 5.864150125e-015 -2.067359921e-014
rhumerus  -43.07960129 -10.13339996 -75.64250183
rradius  3.158861902e-031 1.578111379e-031 26.54590034
rwrist  7.062250077e-031 -0 -6.563549995
rhand  -3.534285164e-031 -2.423099995 11.30729961
rfingers  -90 -7.125020027 -90
rthumb  -78.28671867 -25.27344267 -64.09766792
rfemur  -28.62999916 -0.9141880274 21.94669914
rtibia  -0 0 59.81829834
rfoot  -0 -6.633759975 -15.50150013
rtoes  5.391276841 19.28836873 -105.9448001
lfemur  -25.78070068 -10.03040028 -23.5590992
ltibia  -0 0 30.82049942
lfoot  -0 -22.75060081 20.42880058
ltoes  0.2311343952 -19.99871907 -89.3241944
69
root  2.075155513 37.19111165 -33.09488972 12.14099979 -0.9177849889 0.4556359947
lowerback  -5.269450188 1.965019941 -2.984960079
upperback  -3.915999889 2.73190999 -1.124629974
thorax  -1.163949966 1.415889978 0.6262059808
lowerneck  -16.03569984 -1.632400036 -1.993109941
upperneck  37.79800034 -1.437080026 -0.6923630238
head  16.20660019 -0.967253983 -0.2037349939
lclavicle  0 5.864150125e-015 -2.067359921e-014
lhumerus  -36.53850174 24.06419945 68.39379883
lradius  -2.662995739e-031 -2.318900113e-031 41.0489006
lwrist  -7.062250077e-031 -3.531125038e-031 -2.166680098
lhand  -3.537064109e-031 3.320749998 19.88220024
lfingers  90 7.125020027 -90
lthumb  91.29326547 2.354128308 61.20642655
rclavicle  0 5.864150125e-015 -2.067359921e-014
rhumerus  -43.65110016 -10.17230034 -75.61170197
rradius  3.14296688e-031 1.609535097e-031 27.11730003
rwrist  7.062250077e-031 -1.765562519e-031 -7.33671999
rhand  -3.534567134e-031 -2.528810024 11.60490036
rfingers  -90 -7.125020027 -90
rthumb  -78.19622104 -25.55044166 -64.14850091
rfemur  -30.16830063 -0.2262099981 22.10829926
rtibia  -0 0 59.47779846
rfoot  -0 -7.145040035 -15.87320042
rtoes  5.616654601 19.22620568 -106.6281477
lfemur  -25.65329933 -10.01690006 -23.41270065
ltibia  -0 0 31.04339981
lfoot  -0 -23.75939941 20.81279945
ltoes  0.06628466267 -19.99989466 -89.80619629
70
root  2.097699961 37.17222139 -32.80711136 12.07159996 -0.6581100225 0.3807150126
lowerback  -5.201489925 1.903620005 -2.759419918
upperback  -3.951469898 2.638250113 -1.122689962
thorax  -1.224329948 1.36552 0.4956299961
lowerneck  -15.45320034 -1.626710057 -1.936169982
upperneck  37.71229935 -1.500169992 -0.5993210077
head  16.01980019 -0.9722499847 -0.1778549999
lclavicle  0 5.864150125e-015 -2.067359921e-014
lhumerus  -36.44990158 22.71859932 68.70780182
lradius  -2.620331677e-031 -2.367003578e-031 42.09220123
lwrist  0 -7.062250077e-031 -1.674000025
lhand  -7.075684988e-031 3.531339884 19.32570076
lfingers  90 7.125020027 -90
lthumb  91.01495595 1.832706837 61.01556493
rclavicle  0 5.864150125e-015 -2.067359921e-014
rhumerus  -44.207901 -10.25220013 -75.56919861
rradius  3.125601559e-031 1.643003023e-031 27.72909927
rwrist  1.412450015e-030 -1.765562519e-031 -7.679800034
rhand  -3.535267628e-031 -2.773989916 11.2883997
rfingers  -90 -7.125020027 -90
rthumb  -78.47169584 -25.28628491 -64.47478587
rfemur  -31.00099945 -0.2152809948 22.27050018
rtibia  -0 0 58.9233017
rfoot  -0 -8.612730026 -16.31819916
rtoes  5.913689139 19.14000625 -107.5321028
lfemur  -25.19829941 -10.17020035 -23.44379997
ltibia  -0 0 31.24290085
lfoot  -0 -23.97470093 20.93980026
ltoes  0.06212668982 -19.99990746 -89.81835344
71
root  2.1189577 37.14799956 -32.52911004 12.04920006 -0.6442559958 0.2147810012
lowerback  -4.968629837 1.896720052 -2.548680067
upperback  -4.004529953 2.612489939 -1.051640034
thorax  -1.401090026 1.351379991 0.4398710132
lowerneck  -15.3135004 -1.572199941 -1.783529997
upperneck  37.79019928 -1.450780034 -0.6546019912
head  16.02210045 -0.937687993 -0.2193800062
lclavicle  0 5.864150125e-015 -2.067359921e-014
lhumerus  -36.26169968 21.78520012 68.96949768
lradius  -2.586226429e-031 -2.404220642e-031 42.91130066
lwrist  -1.059337512e-030 -0 -1.389330029
lhand  -3.538087194e-031 3.594980001 19.45249939
lfingers  90 7.125020027 -90
lthumb  91.07344569 1.933390539 60.95288723
rclavicle  0 5.864150125e-015 -2.067359921e-014
rhumerus  -44.51720047 -10.25520039 -75.5286026
rradius  3.114566381e-031 1.663827003e-031 28.11149979
rwrist  7.062250077e-031 -0 -7.862889767
rhand  -3.536576281e-031 -3.181629896 11.10630035
rfingers  -90 -7.125020027 -90
rthumb  -78.76103415 -25.15547213 -64.94511054
rfemur  -31.88430023 0.08787850291 22.48110008
rtibia  -0 0 58.22859955
rfoot  -0 -10.08209991 -16.89069939
rtoes  5.992443947 19.11632835 -107.7724413
lfemur  -24.90439987 -10.0241003 -23.40859985
ltibia  -0 0 31.50930023
lfoot  -0 -24.03779984 21.2154007
ltoes  0.1965533564 -19.99907369 -89.42530792
